<?xml version="1.0" encoding="UTF-8"?>
<svg xmlns="http://www.w3.org/2000/svg" viewBox="0 0 600 160" width="600" height="160">
  <defs>
    <radialGradient id="blob-cream" cx="18%" cy="20%" r="55%">
      <stop offset="0%" stop-color="#f5efd4" stop-opacity="0.9" />
      <stop offset="70%" stop-color="#f5efd4" stop-opacity="0" />
    </radialGradient>
    <radialGradient id="blob-amber" cx="32%" cy="10%" r="50%">
      <stop offset="0%" stop-color="#e8a33d" stop-opacity="0.5" />
      <stop offset="70%" stop-color="#e8a33d" stop-opacity="0" />
    </radialGradient>
    <radialGradient id="blob-seafoam" cx="78%" cy="35%" r="55%">
      <stop offset="0%" stop-color="#7fe0c4" stop-opacity="0.65" />
      <stop offset="65%" stop-color="#7fe0c4" stop-opacity="0" />
    </radialGradient>
    <radialGradient id="blob-teal" cx="88%" cy="15%" r="50%">
      <stop offset="0%" stop-color="#00a19a" stop-opacity="0.55" />
      <stop offset="65%" stop-color="#00a19a" stop-opacity="0" />
    </radialGradient>
    <radialGradient id="blob-emerald" cx="96%" cy="55%" r="55%">
      <stop offset="0%" stop-color="#00594c" stop-opacity="0.55" />
      <stop offset="65%" stop-color="#00594c" stop-opacity="0" />
    </radialGradient>
    <linearGradient id="flow-a" x1="0" y1="0" x2="1" y2="0">
      <stop offset="0%" stop-color="#00594c" stop-opacity="0" />
      <stop offset="30%" stop-color="#00a19a" stop-opacity="0.55" />
      <stop offset="55%" stop-color="#7fe0c4" stop-opacity="0.75" />
      <stop offset="80%" stop-color="#00a19a" stop-opacity="0.4" />
      <stop offset="100%" stop-color="#00594c" stop-opacity="0" />
    </linearGradient>
    <linearGradient id="flow-b" x1="0" y1="0" x2="1" y2="0">
      <stop offset="0%" stop-color="#00594c" stop-opacity="0" />
      <stop offset="35%" stop-color="#7fe0c4" stop-opacity="0.45" />
      <stop offset="60%" stop-color="#00a19a" stop-opacity="0.6" />
      <stop offset="85%" stop-color="#7fe0c4" stop-opacity="0.3" />
      <stop offset="100%" stop-color="#00594c" stop-opacity="0" />
    </linearGradient>
  </defs>

  <rect width="600" height="160" fill="#f4faf8" />
  <rect width="600" height="160" fill="url(#blob-cream)" />
  <rect width="600" height="160" fill="url(#blob-amber)" />
  <rect width="600" height="160" fill="url(#blob-seafoam)" />
  <rect width="600" height="160" fill="url(#blob-teal)" />
  <rect width="600" height="160" fill="url(#blob-emerald)" />

  <path d="M -40 60 C 120 10, 220 130, 340 55 S 560 40, 660 90" fill="none" stroke="url(#flow-a)" stroke-width="1.6" stroke-linecap="round" />
  <path d="M -40 110 C 140 150, 260 40, 400 100 S 580 70, 660 40" fill="none" stroke="url(#flow-b)" stroke-width="1.2" stroke-linecap="round" />

  <circle cx="300" cy="80" r="19" fill="#ffffff" fill-opacity="0.92" />
  <g transform="translate(284,64) scale(0.1095)">
    <path fill="#7fe0c4" d="M243.13,97.97c-3.02-19.85-12.21-38.22-26-52.62-24.23-25.29-59.31-36.7-93.9-31.1-49.72,8.04-89.37,50.76-89.34,101.91,0,4.84.19,9.25,1.24,13.98l22.81,102.13c1.8,8.07,10.87,12.82,18.41,11.48l14.69-2.6c4.65-.82,9.35,2.34,10.41,7.03l5.53,24.56v.03c.73,3.29,3.98,5.44,6.58,5.93,3.29.63,6.73-.28,8.93-2.84l29.98-34.8c5.45-6.32,11.95-12.01,20.56-13.6l71.82-13.3c8.84-1.64,14.39-10.43,13.04-19.28l-14.76-96.91Z"/>
    <path fill="#e8a33d" d="M253.23,93.49c-3.14-20.46-13.37-39.44-27.26-54.4C198.08,9.06,156.63-3.8,116.57,4.46,67.24,14.63,27.22,56.72,23.4,107.66c-.63,8.3-.65,16.38,1.15,24.55l22.7,102.81c3.92,13.11,16.28,21.21,29.91,19.74l14.09-2.48,5.21,23.39c2.05,9.2,11.21,15,20.62,14.22h0c6.59-.54,11.33-4.01,15.35-8.71l28.37-33.17c4.02-4.7,8.88-8.94,15.23-10.08l68.36-12.33c14.7-2.65,26.73-15.42,24.33-31.06l-15.49-101.05ZM244.85,214.16l-71.82,13.3c-8.61,1.59-15.11,7.28-20.56,13.6l-29.98,34.8c-2.2,2.56-5.64,3.47-8.93,2.84-2.6-.49-5.85-2.64-6.59-5.93v-.03s-5.52-24.56-5.52-24.56c-1.06-4.69-5.76-7.85-10.41-7.03l-14.69,2.6c-7.54,1.34-16.61-3.41-18.41-11.48l-22.81-102.13c-1.05-4.73-1.24-9.14-1.24-13.98-.03-51.15,39.62-93.87,89.34-101.91,34.59-5.6,69.67,5.81,93.9,31.1,13.79,14.4,22.98,32.77,26,52.62l14.76,96.91c1.35,8.85-4.2,17.64-13.04,19.28Z"/>
  </g>
</svg>
